<?xml version="1.0" standalone="no"?>
<!DOCTYPE svg PUBLIC "-//W3C//DTD SVG 20010904//EN"
 "http://www.w3.org/TR/2001/REC-SVG-20010904/DTD/svg10.dtd">
<svg version="1.0" xmlns="http://www.w3.org/2000/svg"
 width="700.000000pt" height="700.000000pt" viewBox="0 0 700.000000 700.000000"
 preserveAspectRatio="xMidYMid meet">
<metadata>
Created by potrace 1.11, written by Peter Selinger 2001-2013
</metadata>
<g transform="translate(0.000000,700.000000) scale(0.100000,-0.100000)"
fill="#000000" stroke="none">
<path d="M3278 6996 c-1 -2 -39 -6 -83 -10 -44 -3 -98 -9 -120 -12 -22 -3 -53
-7 -70 -9 -16 -2 -48 -6 -70 -10 -22 -3 -53 -8 -70 -11 -136 -22 -387 -90
-555 -151 -136 -49 -385 -158 -411 -180 -8 -7 -19 -13 -24 -13 -4 0 -49 -23
-99 -52 -618 -351 -1125 -893 -1431 -1530 -121 -253 -222 -547 -269 -788 -8
-41 -18 -86 -21 -100 -34 -162 -50 -355 -50 -625 0 -336 30 -585 102 -855 8
-30 16 -65 19 -78 21 -104 133 -399 221 -582 55 -114 88 -174 198 -358 38 -64
209 -299 261 -358 11 -12 38 -44 61 -71 99 -116 319 -328 446 -428 21 -16 56
-44 77 -61 64 -51 268 -187 370 -246 253 -145 512 -255 799 -338 122 -36 367
-86 466 -96 33 -3 63 -8 66 -9 3 -2 50 -7 105 -12 186 -15 603 -8 725 12 13 2
44 6 69 9 25 3 72 11 105 17 33 5 74 12 90 15 17 3 48 10 70 16 22 5 51 12 65
14 14 3 81 21 150 41 1097 315 1978 1156 2344 2234 41 121 112 385 121 449 4
28 15 94 20 120 10 50 22 148 32 255 15 159 7 635 -12 730 -3 11 -7 38 -10 60
-33 240 -94 483 -179 713 -120 324 -300 653 -500 912 -419 542 -945 934 -1576
1172 -103 39 -376 121 -435 131 -16 3 -50 10 -75 16 -63 14 -157 29 -370 57
-47 6 -546 15 -552 10z m1159 -1644 c6 -4 32 -77 58 -162 25 -85 57 -191 70
-235 13 -44 38 -127 55 -185 33 -113 50 -170 106 -355 20 -66 42 -144 50 -174
8 -29 17 -58 20 -62 3 -5 -113 -9 -263 -9 -1451 -1 -2237 0 -2241 4 -4 5 65
229 242 776 110 345 115 358 130 363 7 3 35 1 62 -5 27 -5 60 -11 74 -14 14
-2 43 -8 65 -14 32 -8 323 -70 399 -86 19 -3 48 0 256 31 102 15 129 20 188
30 16 3 44 7 63 9 19 3 81 12 139 21 58 9 121 18 140 21 19 3 96 15 170 28
154 25 200 29 217 18z m-467 -1575 c19 -3 67 -8 105 -11 69 -6 137 -14 185
-21 14 -2 48 -7 75 -10 28 -3 73 -10 100 -15 28 -5 64 -12 80 -15 111 -18 341
-68 440 -96 205 -57 436 -132 520 -169 11 -5 49 -21 85 -36 36 -14 103 -45
150 -67 47 -22 88 -41 92 -41 4 -1 13 -7 20 -14 9 -9 5 -12 -23 -13 -202 -3
-4561 0 -4565 3 -15 16 375 178 617 256 137 44 460 131 544 145 17 3 77 15
135 26 124 24 140 26 290 45 174 22 207 25 315 32 55 3 102 8 104 10 5 5 688
-4 731 -9z m-1177 -771 c76 -18 159 -54 227 -99 74 -49 192 -177 230 -250 20
-38 42 -67 50 -67 8 1 42 7 75 15 57 14 269 15 320 2 79 -20 70 -25 110 51 80
152 240 285 405 335 292 89 603 -8 785 -243 104 -135 156 -299 149 -471 -13
-369 -341 -682 -710 -681 -300 2 -557 177 -668 455 -31 77 -53 198 -49 269 3
55 -5 61 -82 73 -106 15 -282 -3 -290 -29 -2 -6 -6 -47 -9 -91 -3 -44 -7 -89
-10 -100 -31 -147 -113 -294 -213 -386 -96 -87 -206 -144 -340 -175 -267 -62
-558 52 -729 286 -145 197 -174 473 -73 697 99 220 299 379 529 418 19 3 36 7
37 9 10 9 198 -4 256 -18z"/>
<path d="M2516 2803 c-160 -37 -291 -146 -354 -298 -32 -74 -41 -131 -38 -220
14 -325 330 -550 646 -460 215 62 362 256 361 480 0 44 -2 91 -5 104 -53 235
-246 398 -481 406 -38 1 -97 -4 -129 -12z"/>
<path d="M4340 2809 c-109 -21 -210 -77 -284 -160 -182 -203 -174 -503 18
-695 95 -95 205 -144 339 -149 278 -11 513 210 522 489 2 89 -14 165 -52 240
-47 93 -86 137 -172 196 -102 70 -251 101 -371 79z"/>
</g>
</svg>
